<?xml version="1.0" encoding="utf-8"?>
<!-- Generator: Adobe Illustrator 18.1.1, SVG Export Plug-In . SVG Version: 6.00 Build 0)  -->
<svg version="1.1" id="Layer_1" xmlns="http://www.w3.org/2000/svg" xmlns:xlink="http://www.w3.org/1999/xlink" x="0px" y="0px"
	 viewBox="0 0 297 75" enable-background="new 0 0 297 75" xml:space="preserve">
<g>
	<path fill="#95BF3E" d="M262.8,41.6c3.5,0,5.7-2.6,5.7-5.9c0-3.3-2.2-5.9-5.7-5.9c-3.5,0-5.7,2.6-5.7,5.9
		C257.1,39,259.3,41.6,262.8,41.6z"/>
	<path fill="#95BF3E" d="M295.9,43.9c-0.3,0-0.7,0-0.7-0.2c-0.2-2.6,0.4-4.8-0.2-7.6h-0.2c0.1-1.5-0.4-2-0.5-2.7
		c-0.6-2.4-1.4-3.8-2-5.9c-0.6,0,0.3-0.8,0-1c-0.4,0.4-1.6-0.1-1,0.2c-0.7,0.9-0.5-1.1-0.5-1.7c0.7,0.3,1.3,1.4,1.9,1.3
		c0.6-0.1,2.3-2,2-2.6c-0.2-0.6-1.5,0.8-2.5,1.7c-0.7-0.1-0.7-1.5-0.5-2c0.2-0.4-1.2-0.6-2.2-0.5c-0.9-2-3.2-2.7-4.4-4.4
		c-0.2,0-0.3-0.2-0.5-0.2c0-0.2-0.2-0.2-0.2-0.5c-0.5-0.9-1.2,0.1-1.5-0.2c0.3-0.1,0.5-0.3,0.5-0.7c-2.3-2.8-5.6-4.2-8.6-5.2
		c0.1-0.2,0.4-0.7,0.2-0.7c-0.9,0.2-0.9-0.5-1.7-0.5c-0.4,0.2-0.4,0.8-1,0.7c-0.6-0.6,0.4-0.5,0.2-1.2c-0.5-0.9-2,0.6-2-0.5
		c-0.8-0.4-3.4-0.5-3.9,0.2c-0.3,0-0.7,0-0.7,0.2c-2.8,1.2-7.1,0.9-10.3,1.7c0.6-0.3,2.1-0.7,2.2-1c-0.9-1.3-3,0.4-2.7,1.2
		c-3.3,0.1-5,3-7.6,2.2c-0.2-0.1-0.4-0.1-0.7-0.4c-0.3-0.3-0.3-1-0.5-0.8c-0.3,0.3-0.2,1.1-0.2,1.7c-0.2,0.9-1.7,1.5-1.7,1.5
		s-0.6,0.3-1,0v-0.2c0,0,0-0.3-0.2-0.5c-0.8,0-1.6,1.2-1,1.7c0.7,0.6-0.5,1.5-0.7,2c-1,0.1-0.2-1.1-0.2-1.5c-0.5,0.1-0.5-0.3-1-0.2
		c0,0.3-0.4,0.1-0.5,0.5c-0.1,0.4,0,1.7-0.5,2.2c-0.9,0.4-1.6,0.9-1.5,2.2c-0.3,0.6-2.3,0.8-1.7,1.5c0.3,0.7,1.2,0.9,1.2,2
		c1.2,0.6-0.2,2-0.5,2.7c-0.1,0.3-0.3,0.5-0.7,0.5c-0.8,2.9-1.1,6.3-2.7,8.3c-0.6,2.5-1.1,6.2-0.5,9.1c0.8,5,2.7,8.9,4.9,12.5
		c1.3,1.7,2.4,3.7,4.4,4.7h0.2c0.2,0.5,1.1,0.4,1.5,0.7h0.2c0.6,0.4,0.7,1.4,1.5,1.7v0.2c1.7,0.9,3,2.2,5.2,2.7
		c0.7,0.2,1.4,0.4,1.7,1c2.6,0.7,3.7,2.8,7.1,2h3.2c1.4,0.1,2.5-0.1,3.7-0.2c0.1,0.3,0.1,1.6,0.2,2c0.2,0.3,1.5,0,1.5,0
		c0.6,0.1,0.5-0.4,1.2-0.2c-0.1,0.4,0.2,0.5,0.5,0.5h0.7c0.5,0,2-0.5,2.5-0.5c1.4-0.8,2.5-0.1,3.9,0.2c0.1-0.1-0.2-0.5-0.2-0.7
		c-0.1-0.8,1-1.2,1.7-1.5c0-0.2,0.3-0.2,0.5-0.2c0.1-0.4-0.2-0.5-0.5-0.5c-0.1-0.5,1.1-0.4,0.7,0.2c0.2,0,0.3,0,0.4-0.1
		c0.6-0.2,0.7-0.9,1.6-0.9c1.7-0.5,2.7-1.5,3.9-2.5c0.3-0.3,0.2-0.5-0.2-0.5c0.1-0.3,0.5-0.2,0.5,0c0.7,0,0.3-1.2,0.7-1.5
		c0.4,0.1-0.1,0.3,0,0.7c0.7,0,0.8-1.7,1.7-1.5c0,0-0.1-0.1-0.1-0.1c0.4-0.2,0.7-0.6,1.1-0.8c0.7-0.5,1.4-1.1,1.7-2
		c-1-0.1,1-0.4,0-0.5c0.9-0.4,1.2-1.4,2-2C295.4,55.3,296.7,50,295.9,43.9z M241.6,42.5c-0.5,0-0.9-0.4-0.9-0.9
		c0-0.5,0.4-0.9,0.9-0.9c0.5,0,0.9,0.4,0.9,0.9C242.5,42.1,242.1,42.5,241.6,42.5z M271.3,56.8c3.1,0,3.6-2.7,3.6-4.7v-8h1.3v8.3
		c0,2.9-1.2,5.5-4.9,5.5c-3.7,0-4.9-2.6-4.9-5.5v-8.3h1.3v8C267.7,54.1,268.2,56.8,271.3,56.8z M262.8,28.6c4.1,0,6.9,3,6.9,7.1
		c0,4.1-2.8,7.1-6.9,7.1c-4.1,0-6.9-3-6.9-7.1C255.9,31.6,258.7,28.6,262.8,28.6z M250.8,57.7c-0.5,0-0.9-0.4-0.9-0.9
		c0-0.5,0.4-0.9,0.9-0.9c0.5,0,0.9,0.4,0.9,0.9C251.7,57.3,251.3,57.7,250.8,57.7z M250.5,42.7c-4.1,0-6.9-3-6.9-7.1
		c0-4.1,2.8-7.1,6.9-7.1c1.8,0,3.5,0.6,4.6,2.1l-1,0.9c-0.8-1.3-2.3-1.8-3.6-1.8c-3.5,0-5.7,2.6-5.7,5.9c0,3.3,2.2,5.9,5.7,5.9
		c1.3,0,3-0.6,4-2.1l1,0.8C254.2,42,252.4,42.7,250.5,42.7z M264.5,57.6L263,54h-7.1l-1.5,3.6h-1.3l5.9-13.4h1.3l5.7,13.4H264.5z
		 M266.2,68.5c0.4-0.3,1.4,0,1.5,0.7C267.2,69.6,266,69.5,266.2,68.5z M275.3,69.4c-0.7-0.1-1.7,0.3-2-0.2c-0.2-0.3-0.3-0.8-0.4-0.6
		c0.2,1.2,0.4,1.9-0.7,2.9c-0.4-0.4-0.1-1.1,0.2-1.5c0.1,0.3,0.4,0.6,0.5,0.2c-0.5,0-0.3-1.1-0.7-0.7c-0.9,1.4-1.8,2-2.7,2.7
		c-0.6-0.7-1.6-0.9-2.2,0c-0.3-0.4-0.3-0.6,0-1c2.2-1.9,5.3-2.8,8.1-4.2C275.7,68.4,275,68.7,275.3,69.4z M276.3,68.5
		c-0.4-0.6-0.2-0.4-0.7-1.5c0.5-0.1,0.6-0.5,1.2-0.5c0.3,0,0.6,0.1,0.5,0.5C276.8,67.4,276.5,67.9,276.3,68.5z M277.3,70.4
		c0,0.2,0.1,0.2,0.2,0.2c-0.6,0.7-0.5-1.2,0.5-1c-0.1,0.2-0.3,0.4-0.2,0.7c0.2,0,0.2-0.1,0.2-0.2C278.5,70.5,277.8,70.7,277.3,70.4z
		 M285.3,42.4H284V30.5h0l-5.1,11.8h-0.5l-5.2-11.8h0v11.8h-1.3V28.9h1.9l4.9,11.3l4.9-11.3h1.8V42.4z M290.1,25.5
		c-0.4,0.7-0.4-1.8,0-2c0.4,0.2,0,0.4,0,0.7c0.2,0,0.2-0.1,0.2-0.2C290.9,24.2,289.7,24.7,290.1,25.5z M291.5,49.5V50
		c-0.8,0.1-0.1-1.2-1-1c0-0.3,0.3-0.3,0.2-0.7c0.4,0,0.2,0.6,0.7,0.5C291.4,49.2,291.2,49.2,291.5,49.5z M293.5,52.2
		c-0.1,0.4-0.4,0.6-1,0.5c0-0.3,0.4-0.2,0.7-0.2c0-0.3-0.4-0.2-0.7-0.2c-0.1-0.6,1-0.2,0.7-1C294.1,51.3,292.8,52.3,293.5,52.2z"/>
	<polygon fill="#95BF3E" points="256.4,52.9 262.6,52.9 259.5,45.5 	"/>
</g>
<g>
	<path fill="#2D64AA" d="M40.4,28.2H26.3v17.3c0,5.6,0.6,9.6,7.6,9.6c1.7,0,5.1-0.2,6.5-1.5v13.4c-3.5,1.3-7.5,1.6-11.2,1.6
		c-10.7,0-18.9-4.4-18.9-15.7V28.2H0V15.4h10.3V0h16v15.4h14.1V28.2z"/>
	<path fill="#2D64AA" d="M76.5,60.9h-0.2c-3.5,5.6-9.9,7.8-16.5,7.8c-9.7,0-18.5-5.6-18.5-16c0-18,21.8-18.3,35.2-18.3
		c0-5.7-4.7-9.3-10.3-9.3c-5.2,0-9.6,2.4-13,6.2l-8.6-8.8c5.9-5.6,14.4-8.3,22.9-8.3c18.7,0,23.7,9.5,23.7,26.8v26.4H76.5V60.9z
		 M72.5,44.6c-4.9,0-15.8,0.4-15.8,7.5c0,3.8,4.1,5.7,7.6,5.7c6.3,0,12.2-3.3,12.2-9.7v-3.4H72.5z"/>
	<path fill="#2D64AA" d="M125,30.7c-2.4-2.9-5.5-4.4-9.3-4.4c-2.7,0-5.9,1.2-5.9,4.3c0,7.7,27.1,1.2,27.1,21
		c0,13.3-12.8,17.1-24,17.1c-7.3,0-15.3-1.8-20.4-7.1l9.7-10.8c3,3.6,6.5,5.7,11.3,5.7c3.6,0,7.3-1,7.3-3.7
		c0-8.3-27.1-1.3-27.1-21.1c0-12.2,10.9-17.5,21.8-17.5c6.8,0,14.4,1.7,19.2,6.8L125,30.7z"/>
	<path fill="#2D64AA" d="M176.2,28.2h-14.1v17.3c0,5.6,0.6,9.6,7.6,9.6c1.7,0,5.1-0.2,6.5-1.5v13.4c-3.5,1.3-7.5,1.6-11.2,1.6
		c-10.7,0-18.9-4.4-18.9-15.7V28.2h-10.3V15.4h10.3V0h16v15.4h14.1V28.2z"/>
	<path fill="#2D64AA" d="M226.6,58.4c-5.1,6.5-13.6,10.3-21.9,10.3c-16,0-28.9-10.7-28.9-27.3c0-16.6,12.8-27.3,28.9-27.3
		c15,0,24.4,10.7,24.4,27.3v5h-37.2c1.3,6.1,5.9,10.1,12.1,10.1c5.2,0,8.8-2.7,11.4-6.3L226.6,58.4z M213,35.5
		c0.1-5.3-4.1-9.8-9.8-9.8c-7.1,0-10.9,4.8-11.3,9.8H213z"/>
</g>
</svg>
