<svg width="24" height="24" viewBox="0 0 24 24" fill="none" xmlns="http://www.w3.org/2000/svg">
<circle cx="12" cy="11" r="9" fill="#A0A0A0"/>
<path d="M11.602 12.902C11.3778 12.902 11.196 12.7202 11.196 12.496L11.0626 6.86776C11.0513 6.39187 11.434 6 11.91 6C12.386 6 12.7687 6.39187 12.7574 6.86776L12.624 12.496C12.624 12.7202 12.4422 12.902 12.218 12.902H11.602ZM11.91 15.8C11.4074 15.8 11 15.3926 11 14.89V14.806C11 14.3034 11.4074 13.896 11.91 13.896C12.4126 13.896 12.82 14.3034 12.82 14.806V14.89C12.82 15.3926 12.4126 15.8 11.91 15.8Z" fill="white"/>
</svg>
